<svg width="52" height="19" viewBox="0 0 52 19" fill="none" xmlns="http://www.w3.org/2000/svg">
  <path d="M43.5187 3.65989L43.4788 4.09514L43.4085 4.52738L43.3079 4.95486L43.3041 4.96706L43.2994 4.9791L43.294 4.99074L43.2877 5.00222L43.2807 5.01323L43.2728 5.02385L43.2643 5.03407L43.255 5.04373L43.2451 5.05284L43.2346 5.06147L43.2234 5.06947L43.2118 5.07684L43.1996 5.08357L42.9545 5.20112L42.7016 5.30496L42.442 5.3947L42.1765 5.4701L41.9063 5.5307L41.6323 5.5764L41.3556 5.60698L41.0822 5.62139L41.0773 5.62226H40.938H40.7986L40.7938 5.62139L40.5203 5.60698L40.2437 5.5764L39.9698 5.5307L39.6995 5.4701L39.4341 5.3947L39.1743 5.30496L38.9214 5.20112L38.6763 5.08357L38.6642 5.07684L38.6525 5.06947L38.6413 5.06147L38.6309 5.05284L38.6209 5.04373L38.6117 5.03407L38.6032 5.02385L38.5953 5.01323L38.5882 5.00222L38.5819 4.99074L38.5766 4.9791L38.5719 4.96706L38.568 4.95486L38.4675 4.52738L38.3972 4.09514L38.3572 3.65989L38.3479 3.2233L38.3692 2.78703L38.421 2.35281L38.5033 1.92224L38.5064 1.91043L38.5102 1.89871L38.5135 1.89063L38.5149 1.88723L38.5204 1.87606L38.5266 1.86521L38.6167 1.72873L38.7166 1.5978L38.826 1.47289L38.9444 1.35456L38.9944 1.3106L39.0711 1.24327L39.2058 1.13959L39.3478 1.04375L39.4965 0.956379L39.6514 0.877725L39.8117 0.808182L39.9768 0.748063L40.1459 0.697528L40.3184 0.656815L40.4935 0.626162L40.6706 0.605568L40.8487 0.595351H40.938H41.0273L41.2054 0.605568L41.3824 0.626162L41.5576 0.656815L41.7301 0.697528L41.8993 0.748063L42.0643 0.808182L42.2245 0.877725L42.3794 0.956379L42.5282 1.04375L42.6701 1.13959L42.8048 1.24327L42.8815 1.3106L42.9316 1.35456L43.0499 1.47289L43.1593 1.5978L43.2592 1.72873L43.3494 1.86521L43.3556 1.87606L43.361 1.88723L43.3625 1.89063L43.3657 1.89871L43.3696 1.91043L43.3728 1.92224L43.4549 2.35281L43.5068 2.78703L43.5281 3.2233L43.5187 3.65989ZM44.5262 2.79518L44.5219 2.7578L44.5153 2.72089L44.5063 2.68429L44.495 2.64833L44.4812 2.61316L44.4652 2.57887L44.4471 2.54552L44.4268 2.51336L44.4045 2.48239L44.3802 2.45285L44.354 2.42481L44.3261 2.39835L44.2964 2.37364L44.2653 2.35067L44.2327 2.3296L44.1866 2.30354L44.1747 2.29586L44.1634 2.28754L44.1527 2.27851L44.1424 2.26893L44.133 2.25879L44.1241 2.24802L44.1161 2.23677L44.1087 2.22505L44.1021 2.21293L44.0963 2.20049L44.0913 2.18774L44.056 2.09721L44.0145 2.00913L43.967 1.92382L43.9139 1.8416L43.8552 1.76287L43.7913 1.68794L43.7222 1.61721L43.6486 1.55099L43.5707 1.48937L43.5606 1.48152L43.551 1.47313L43.5419 1.46426L43.5334 1.45491L43.5254 1.44509L43.518 1.43487L43.5113 1.42426L43.4126 1.27067L43.3037 1.12343L43.1853 0.983071L43.0578 0.850162L42.9215 0.72533L42.7772 0.608974L42.6254 0.501647L42.4668 0.403826L42.3019 0.315747L42.1315 0.237966L41.9562 0.17064L41.7768 0.114164L41.594 0.0686989L41.4085 0.0344019L41.2211 0.0114317L41.0324 -5.38826e-05H40.938H40.8435L40.6549 0.0114317L40.4675 0.0344019L40.282 0.0686989L40.0991 0.114164L39.9198 0.17064L39.7444 0.237966L39.574 0.315747L39.4092 0.403826L39.2505 0.501647L39.0988 0.608974L38.9545 0.72533L38.8182 0.850162L38.6907 0.983071L38.5722 1.12343L38.4634 1.27067L38.3647 1.42426L38.3579 1.43487L38.3505 1.44509L38.3426 1.45491L38.3341 1.46426L38.3251 1.47313L38.3155 1.48152L38.3054 1.48937L38.2273 1.55099L38.1537 1.61721L38.0848 1.68794L38.0208 1.76287L37.9621 1.8416L37.909 1.92382L37.8615 2.00913L37.8201 2.09721L37.7846 2.18774L37.7797 2.20049L37.7738 2.21293L37.7673 2.22505L37.7599 2.23677L37.7518 2.24802L37.7431 2.25879L37.7335 2.26893L37.7234 2.27851L37.7126 2.28754L37.7013 2.29586L37.6895 2.30354L37.6432 2.3296L37.6107 2.35067L37.5795 2.37364L37.5498 2.39835L37.522 2.42481L37.4958 2.45285L37.4715 2.48239L37.4491 2.51336L37.4289 2.54552L37.4107 2.57887L37.3948 2.61316L37.3811 2.64833L37.3696 2.68429L37.3606 2.72089L37.3541 2.7578L37.3498 2.79518L37.348 2.83265L37.3486 2.87019L37.4292 4.58369L37.4313 4.60975L37.4351 4.63573L37.4405 4.66147L37.4474 4.68674L37.456 4.71161L37.4663 4.73593L37.4781 4.75969L37.4913 4.78258L37.506 4.80476L37.5371 4.84579L37.5707 4.885L37.6068 4.92215L37.6452 4.95716L37.6858 4.98987L37.7283 5.0202L37.7845 5.05545L37.7959 5.06353L37.8067 5.07232L37.8169 5.08167L37.8265 5.09165L37.8354 5.10211L37.8438 5.11312L37.8512 5.1246L37.858 5.13648L37.864 5.14868L37.927 5.30163L37.9934 5.43842C38.0429 5.52602 39.1557 6.33378 39.1557 6.33378C39.1557 6.33378 39.7335 6.59351 40.938 6.59351C42.1425 6.59351 42.7202 6.33378 42.7202 6.33378C42.7202 6.33378 43.8331 5.52602 43.8825 5.43842L43.9491 5.30163L44.012 5.14868L44.0179 5.13648L44.0248 5.1246L44.0323 5.11312L44.0405 5.10211L44.0495 5.09165L44.0591 5.08167L44.0693 5.07232L44.0801 5.06353L44.0914 5.05545L44.1477 5.0202L44.1902 4.98987L44.2307 4.95716L44.2691 4.92215L44.3052 4.885L44.3388 4.84579L44.3699 4.80476L44.3846 4.78258L44.3979 4.75969L44.4096 4.73593L44.4199 4.71161L44.4285 4.68674L44.4355 4.66147L44.441 4.63573L44.4447 4.60975L44.4467 4.58369L44.5274 2.87019L44.528 2.83265L44.5262 2.79518Z" fill="#FEFEFE"/>
  <path d="M42.2575 3.63576H41.9176C41.8751 3.63576 41.8406 3.66981 41.8406 3.71172V3.94261C41.8406 3.98466 41.8236 4.02506 41.7934 4.05484L41.7718 4.07615C41.7416 4.10593 41.7006 4.12257 41.6579 4.12257H40.2183C40.1756 4.12257 40.1346 4.10593 40.1044 4.07615L40.0828 4.05484C40.0526 4.02506 40.0356 3.98466 40.0356 3.94261V3.71172C40.0356 3.66981 40.0011 3.63576 39.9585 3.63576H39.6187C39.5762 3.63576 39.5416 3.66981 39.5416 3.71172V4.0466C39.5416 4.08858 39.5762 4.12257 39.6187 4.12257H39.8746C39.9173 4.12257 39.9583 4.13928 39.9885 4.16906C40.0187 4.19884 40.0356 4.23924 40.0356 4.2813V4.52629C40.0356 4.57199 40.0735 4.60938 40.1199 4.60938H40.1202H41.756H41.7562C41.8027 4.60938 41.8406 4.57199 41.8406 4.52629V4.2813C41.8406 4.23924 41.8575 4.19884 41.8877 4.16906C41.9179 4.13928 41.9589 4.12257 42.0016 4.12257H42.2575C42.3 4.12257 42.3346 4.08858 42.3346 4.0466V3.71172C42.3346 3.66981 42.3 3.63576 42.2575 3.63576Z" fill="#FEFEFE"/>
  <path d="M51.698 10.0741C51.4966 9.52907 51.2094 9.06491 50.8359 8.68258C50.4619 8.30008 50.0127 8.00274 49.4884 7.79022C48.9634 7.57771 48.3779 7.47141 47.7314 7.47141C46.9551 7.47141 46.2939 7.60955 45.7479 7.88591C45.2014 8.16218 44.7916 8.45604 44.5193 8.76757V7.66547C44 8.03078 42.8954 8.3008 41.5651 8.36622V18.5621H44.5623V12.6131C44.5623 11.8482 44.7848 11.2534 45.2303 10.8283C45.6758 10.4035 46.2655 10.1911 46.9982 10.1911C47.6452 10.1911 48.1444 10.3929 48.4968 10.7965C48.8487 11.2003 49.0249 11.728 49.0249 12.3794V18.5621H52V11.8695C52 11.2181 51.8995 10.6198 51.698 10.0741ZM37.3614 18.5621H40.358V8.3686C39.0103 8.30745 37.8885 8.0364 37.3614 7.66832V18.5621ZM30.0742 18.562V7.6627H33.0713V9.1499C33.4447 8.65438 33.9013 8.25755 34.4399 7.96028C34.9791 7.6627 35.5934 7.51395 36.2836 7.51395V10.4885C35.1763 10.4885 34.3679 10.7683 33.8582 11.3278C33.3474 11.8874 33.0929 12.6415 33.0929 13.5904V18.562H30.0742ZM22.8953 16.0975C23.3266 16.0975 23.7253 16.0231 24.0919 15.8744C24.4585 15.7256 24.7779 15.5169 25.0514 15.2476C25.3238 14.9789 25.5363 14.667 25.6873 14.3128C25.8382 13.959 25.9135 13.5764 25.9135 13.1656C25.9135 12.7691 25.8345 12.3899 25.6763 12.0289C25.5179 11.6676 25.3028 11.3562 25.0298 11.094C24.7562 10.832 24.437 10.6234 24.0704 10.4673C23.7037 10.3116 23.3119 10.2335 22.8953 10.2335C22.4782 10.2335 22.0937 10.3116 21.7418 10.4673C21.3893 10.6234 21.0842 10.832 20.8255 11.094C20.5667 11.3562 20.3621 11.6676 20.2111 12.0289C20.0602 12.3899 19.9849 12.7691 19.9849 13.1656C19.9849 13.5764 20.0602 13.959 20.2111 14.3128C20.3621 14.667 20.5667 14.9789 20.8255 15.2476C21.0842 15.5169 21.3893 15.7256 21.7418 15.8744C22.0937 16.0231 22.4782 16.0975 22.8953 16.0975ZM25.8703 17.7547C25.4822 18.0523 25.0045 18.2858 24.437 18.4558C23.8689 18.6258 23.2687 18.7108 22.6365 18.7108C21.8749 18.7108 21.1563 18.569 20.4804 18.2858C19.8051 18.0028 19.2159 17.6132 18.713 17.1174C18.2097 16.6216 17.8073 16.0373 17.5053 15.3645C17.2034 14.692 17.053 13.959 17.053 13.1656C17.053 12.3868 17.2034 11.6538 17.5053 10.9665C17.8073 10.2797 18.2097 9.68479 18.713 9.18174C19.2159 8.67925 19.8051 8.28242 20.4804 7.99212C21.1563 7.70183 21.8749 7.5564 22.6365 7.5564C23.2687 7.5564 23.8689 7.64503 24.437 7.82206C25.0045 7.99941 25.4822 8.23624 25.8703 8.53382V4.00853H28.8669V18.562H25.8703V17.7547ZM13.0212 4.00853H16.0399V18.562H13.0212V4.00853ZM5.8423 10.2335C5.42524 10.2335 5.04064 10.3116 4.68876 10.4673C4.33639 10.6234 4.03129 10.832 3.77249 11.094C3.51368 11.3562 3.30904 11.6676 3.15818 12.0289C3.00715 12.3899 2.932 12.7691 2.932 13.1656C2.932 13.5764 3.00715 13.959 3.15818 14.3128C3.30904 14.667 3.51368 14.9789 3.77249 15.2476C4.03129 15.5169 4.33639 15.7256 4.68876 15.8744C5.04064 16.0231 5.42524 16.0975 5.8423 16.0975C6.27368 16.0975 6.67234 16.0231 7.03901 15.8744C7.4056 15.7256 7.72484 15.5169 7.99836 15.2476C8.27083 14.9789 8.48335 14.667 8.63429 14.3128C8.78532 13.959 8.86055 13.5764 8.86055 13.1656C8.86055 12.7691 8.78162 12.3899 8.62328 12.0289C8.46494 11.6676 8.24985 11.3562 7.97682 11.094C7.7033 10.832 7.38406 10.6234 7.01739 10.4673C6.6508 10.3116 6.25889 10.2335 5.8423 10.2335ZM8.81738 17.7547C8.42917 18.0523 7.95158 18.2858 7.38405 18.4558C6.81596 18.6258 6.21581 18.7108 5.58349 18.7108C4.82186 18.7108 4.10339 18.569 3.42743 18.2858C2.75204 18.0028 2.16297 17.6132 1.66007 17.1174C1.15668 16.6216 0.754324 16.0373 0.452355 15.3645C0.150466 14.692 0 13.959 0 13.1656C0 12.3868 0.150466 11.6538 0.452355 10.9665C0.754324 10.2797 1.15668 9.68479 1.66007 9.18174C2.16297 8.67925 2.75204 8.28242 3.42743 7.99212C4.10339 7.70183 4.82186 7.5564 5.58349 7.5564C6.21581 7.5564 6.81596 7.64503 7.38405 7.82206C7.95158 7.99941 8.42917 8.23624 8.81738 8.53382V7.6627H11.814V18.562H8.81738V17.7547Z" fill="#FEFEFE"/>
</svg>
