<svg width="86" height="32" viewBox="0 0 86 32" fill="none" xmlns="http://www.w3.org/2000/svg">
<path d="M71.9734 6.16415L71.9073 6.89719L71.791 7.62517L71.6247 8.34515L71.6183 8.36569L71.6106 8.38597L71.6017 8.40558L71.5913 8.42492L71.5796 8.44346L71.5666 8.46134L71.5525 8.47855L71.5372 8.49482L71.5209 8.51017L71.5035 8.52471L71.485 8.53818L71.4657 8.55059L71.4456 8.56193L71.0402 8.7599L70.622 8.93479L70.1925 9.08593L69.7535 9.21293L69.3066 9.31498L68.8534 9.39196L68.3959 9.44345L67.9438 9.46773L67.9357 9.4692H67.7052H67.4747L67.4667 9.46773L67.0145 9.44345L66.5569 9.39196L66.1039 9.31498L65.6569 9.21293L65.218 9.08593L64.7883 8.93479L64.3701 8.7599L63.9647 8.56193L63.9448 8.55059L63.9254 8.53818L63.9069 8.52471L63.8896 8.51017L63.8731 8.49482L63.8578 8.47855L63.8437 8.46134L63.8307 8.44346L63.819 8.42492L63.8087 8.40558L63.7997 8.38597L63.792 8.36569L63.7857 8.34515L63.6194 7.62517L63.5031 6.89719L63.437 6.16415L63.4216 5.42883L63.4568 4.69405L63.5425 3.96274L63.6785 3.23756L63.6837 3.21768L63.6901 3.19794L63.6955 3.18433L63.6978 3.1786L63.7068 3.15979L63.7172 3.14151L63.8662 2.91166L64.0314 2.69114L64.2124 2.48077L64.408 2.28146L64.4908 2.20742L64.6177 2.09403L64.8404 1.91941L65.0752 1.75799L65.3212 1.61085L65.5774 1.47838L65.8425 1.36125L66.1155 1.26L66.3952 1.17489L66.6806 1.10632L66.9701 1.05469L67.2629 1.02001L67.5575 1.0028H67.7052H67.8529L68.1474 1.02001L68.4403 1.05469L68.7299 1.10632L69.0152 1.17489L69.295 1.26L69.5679 1.36125L69.8329 1.47838L70.0891 1.61085L70.3352 1.75799L70.5699 1.91941L70.7927 2.09403L70.9195 2.20742L71.0023 2.28146L71.198 2.48077L71.3789 2.69114L71.5441 2.91166L71.6933 3.14151L71.7035 3.15979L71.7126 3.1786L71.7149 3.18433L71.7203 3.19794L71.7268 3.21768L71.732 3.23756L71.8678 3.96274L71.9537 4.69405L71.9888 5.42883L71.9734 6.16415ZM73.6395 4.70779L73.6324 4.64482L73.6215 4.58266L73.6066 4.52103L73.5879 4.46046L73.5652 4.40123L73.5387 4.34347L73.5087 4.2873L73.4752 4.23314L73.4384 4.18098L73.3981 4.13122L73.3547 4.084L73.3086 4.03944L73.2596 3.99782L73.208 3.95913L73.1542 3.92365L73.0779 3.87976L73.0582 3.86682L73.0396 3.85281L73.0218 3.8376L73.0049 3.82146L72.9892 3.80439L72.9746 3.78624L72.9613 3.7673L72.949 3.74756L72.9381 3.72715L72.9286 3.7062L72.9203 3.68472L72.8618 3.53225L72.7933 3.3839L72.7147 3.24023L72.6268 3.10176L72.5298 2.96915L72.4241 2.84295L72.3099 2.72383L72.1882 2.6123L72.0592 2.50851L72.0426 2.49531L72.0267 2.48117L72.0116 2.46623L71.9977 2.45048L71.9844 2.43394L71.9722 2.41673L71.961 2.39886L71.7979 2.14019L71.6178 1.89219L71.422 1.6558L71.211 1.43196L70.9856 1.22171L70.747 1.02574L70.496 0.844982L70.2336 0.68023L69.961 0.531886L69.6792 0.400886L69.3892 0.287494L69.0925 0.192377L68.7901 0.115805L68.4833 0.0580406L68.1733 0.0193539L67.8614 1.04904e-05H67.7052H67.549L67.237 0.0193539L66.927 0.0580406L66.6202 0.115805L66.3178 0.192377L66.0212 0.287494L65.7312 0.400886L65.4494 0.531886L65.1767 0.68023L64.9143 0.844982L64.6634 1.02574L64.4248 1.22171L64.1995 1.43196L63.9885 1.6558L63.7926 1.89219L63.6126 2.14019L63.4494 2.39886L63.4382 2.41673L63.426 2.43394L63.4128 2.45048L63.3987 2.46623L63.3838 2.48117L63.368 2.49531L63.3512 2.50851L63.2222 2.6123L63.1004 2.72383L62.9865 2.84295L62.8807 2.96915L62.7835 3.10176L62.6956 3.24023L62.6171 3.3839L62.5486 3.53225L62.49 3.68472L62.4819 3.7062L62.4722 3.72715L62.4613 3.74756L62.4492 3.7673L62.4358 3.78624L62.4213 3.80439L62.4055 3.82146L62.3887 3.8376L62.3709 3.85281L62.3522 3.86682L62.3326 3.87976L62.2562 3.92365L62.2024 3.95913L62.1508 3.99782L62.1017 4.03944L62.0557 4.084L62.0123 4.13122L61.9721 4.18098L61.9352 4.23314L61.9017 4.2873L61.8716 4.34347L61.8453 4.40123L61.8226 4.46046L61.8037 4.52103L61.7888 4.58266L61.7779 4.64482L61.7709 4.70779L61.7679 4.77089L61.7689 4.83412L61.9022 7.72002L61.9057 7.76391L61.9119 7.80767L61.9208 7.85102L61.9324 7.89358L61.9466 7.93547L61.9636 7.97642L61.983 8.01644L62.005 8.055L62.0293 8.09235L62.0807 8.16145L62.1363 8.22749L62.196 8.29005L62.2595 8.34902L62.3265 8.40411L62.3968 8.4552L62.4899 8.51457L62.5086 8.52818L62.5266 8.54298L62.5434 8.55872L62.5593 8.57553L62.574 8.59314L62.5878 8.61169L62.6001 8.63103L62.6114 8.65104L62.6213 8.67158L62.7254 8.92918L62.8354 9.15957C62.9171 9.30711 64.7576 10.6676 64.7576 10.6676C64.7576 10.6676 65.7131 11.105 67.7052 11.105C69.6972 11.105 70.6527 10.6676 70.6527 10.6676C70.6527 10.6676 72.4932 9.30711 72.575 9.15957L72.6851 8.92918L72.7891 8.67158L72.799 8.65104L72.8103 8.63103L72.8226 8.61169L72.8363 8.59314L72.8511 8.57553L72.867 8.55872L72.8839 8.54298L72.9017 8.52818L72.9205 8.51457L73.0135 8.4552L73.0838 8.40411L73.1508 8.34902L73.2144 8.29005L73.2741 8.22749L73.3296 8.16145L73.3811 8.09235L73.4054 8.055L73.4273 8.01644L73.4467 7.97642L73.4637 7.93547L73.478 7.89358L73.4895 7.85102L73.4986 7.80767L73.5048 7.76391L73.5081 7.72002L73.6415 4.83412L73.6425 4.77089L73.6395 4.70779Z" fill="#FEFEFE"/>
<path d="M69.8875 6.1234H69.3254C69.255 6.1234 69.198 6.18076 69.198 6.25133V6.6402C69.198 6.71104 69.17 6.77907 69.12 6.82923L69.0842 6.86512C69.0342 6.91528 68.9665 6.94329 68.8959 6.94329H66.515C66.4444 6.94329 66.3766 6.91528 66.3266 6.86512L66.2909 6.82923C66.2409 6.77907 66.2128 6.71104 66.2128 6.6402V6.25133C66.2128 6.18076 66.1558 6.1234 66.0854 6.1234H65.5234C65.453 6.1234 65.3959 6.18076 65.3959 6.25133V6.81536C65.3959 6.88606 65.453 6.94329 65.5234 6.94329H65.9466C66.0172 6.94329 66.085 6.97144 66.135 7.0216C66.1849 7.07176 66.2128 7.13979 66.2128 7.21063V7.62324C66.2128 7.70022 66.2756 7.76318 66.3523 7.76318H66.3527H69.0582H69.0584C69.1353 7.76318 69.198 7.70022 69.198 7.62324V7.21063C69.198 7.13979 69.2259 7.07176 69.2759 7.0216C69.3259 6.97144 69.3937 6.94329 69.4643 6.94329H69.8875C69.9578 6.94329 70.015 6.88606 70.015 6.81536V6.25133C70.015 6.18076 69.9578 6.1234 69.8875 6.1234Z" fill="#FEFEFE"/>
<path d="M85.5006 16.9668C85.1675 16.0489 84.6925 15.2672 84.0748 14.6232C83.4563 13.979 82.7133 13.4782 81.8461 13.1203C80.978 12.7624 80.0096 12.5834 78.9405 12.5834C77.6565 12.5834 76.563 12.816 75.6601 13.2815C74.7561 13.7468 74.0785 14.2417 73.628 14.7664V12.9102C72.7691 13.5255 70.9423 13.9802 68.7424 14.0904V31.2624H73.6992V21.2431C73.6992 19.9548 74.0672 18.9531 74.804 18.2371C75.5408 17.5217 76.516 17.1639 77.7278 17.1639C78.7978 17.1639 79.6234 17.5038 80.2062 18.1835C80.7883 18.8636 81.0797 19.7523 81.0797 20.8494V31.2624H86V19.9907C86 18.8936 85.8338 17.8859 85.5006 16.9668ZM61.79 31.2624H66.7459V14.0944C64.5171 13.9914 62.6617 13.5349 61.79 12.915V31.2624ZM49.738 31.2623V12.9055H54.6948V15.4103C55.3124 14.5757 56.0675 13.9074 56.9583 13.4067C57.85 12.9055 58.8661 12.655 60.0075 12.655V17.6648C58.1762 17.6648 56.8392 18.136 55.9963 19.0783C55.1515 20.0208 54.7306 21.291 54.7306 22.8891V31.2623H49.738ZM37.8653 27.1116C38.5786 27.1116 39.2381 26.9862 39.8444 26.7358C40.4506 26.4851 40.9788 26.1337 41.4311 25.6802C41.8817 25.2275 42.2331 24.7023 42.4828 24.1058C42.7325 23.5098 42.8569 22.8655 42.8569 22.1737C42.8569 21.5057 42.7264 20.8671 42.4646 20.2591C42.2026 19.6506 41.8469 19.1262 41.3955 18.6845C40.943 18.2432 40.415 17.892 39.8087 17.6291C39.2023 17.3668 38.5543 17.2354 37.8653 17.2354C37.1754 17.2354 36.5395 17.3668 35.9575 17.6291C35.3747 17.892 34.8701 18.2432 34.4422 18.6845C34.0141 19.1262 33.6757 19.6506 33.4261 20.2591C33.1764 20.8671 33.052 21.5057 33.052 22.1737C33.052 22.8655 33.1764 23.5098 33.4261 24.1058C33.6757 24.7023 34.0141 25.2275 34.4422 25.6802C34.8701 26.1337 35.3747 26.4851 35.9575 26.7358C36.5395 26.9862 37.1754 27.1116 37.8653 27.1116ZM42.7855 29.9026C42.1436 30.4038 41.3536 30.7971 40.415 31.0834C39.4755 31.3698 38.4829 31.5129 37.4373 31.5129C36.1777 31.5129 34.9893 31.2741 33.8715 30.7971C32.7545 30.3205 31.7801 29.6644 30.9484 28.8293C30.116 27.9942 29.4505 27.0102 28.951 25.8771C28.4518 24.7444 28.2031 23.5098 28.2031 22.1737C28.2031 20.8619 28.4518 19.6274 28.951 18.4699C29.4505 17.3132 30.116 16.3112 30.9484 15.4639C31.7801 14.6176 32.7545 13.9493 33.8715 13.4604C34.9893 12.9714 36.1777 12.7265 37.4373 12.7265C38.4829 12.7265 39.4755 12.8758 40.415 13.1739C41.3536 13.4726 42.1436 13.8715 42.7855 14.3727V6.75114H47.7415V31.2623H42.7855V29.9026ZM21.535 6.75114H26.5275V31.2623H21.535V6.75114ZM9.66227 17.2354C8.97251 17.2354 8.33644 17.3668 7.75448 17.6291C7.17173 17.892 6.66714 18.2432 6.23911 18.6845C5.81108 19.1262 5.47265 19.6506 5.22314 20.2591C4.97337 20.8671 4.84908 21.5057 4.84908 22.1737C4.84908 22.8655 4.97337 23.5098 5.22314 24.1058C5.47265 24.7023 5.81108 25.2275 6.23911 25.6802C6.66714 26.1337 7.17173 26.4851 7.75448 26.7358C8.33644 26.9862 8.97251 27.1116 9.66227 27.1116C10.3757 27.1116 11.035 26.9862 11.6414 26.7358C12.2477 26.4851 12.7757 26.1337 13.2281 25.6802C13.6787 25.2275 14.0302 24.7023 14.2798 24.1058C14.5296 23.5098 14.654 22.8655 14.654 22.1737C14.654 21.5057 14.5234 20.8671 14.2616 20.2591C13.9997 19.6506 13.644 19.1262 13.1924 18.6845C12.7401 18.2432 12.2121 17.892 11.6057 17.6291C10.9994 17.3668 10.3512 17.2354 9.66227 17.2354ZM14.5826 29.9026C13.9406 30.4038 13.1507 30.7971 12.2121 31.0834C11.2726 31.3698 10.28 31.5129 9.23424 31.5129C7.97462 31.5129 6.78637 31.2741 5.66845 30.7971C4.55145 30.3205 3.57722 29.6644 2.74549 28.8293C1.91296 27.9942 1.24754 27.0102 0.748125 25.8771C0.248848 24.7444 0 23.5098 0 22.1737C0 20.8619 0.248848 19.6274 0.748125 18.4699C1.24754 17.3132 1.91296 16.3112 2.74549 15.4639C3.57722 14.6176 4.55145 13.9493 5.66845 13.4604C6.78637 12.9714 7.97462 12.7265 9.23424 12.7265C10.28 12.7265 11.2726 12.8758 12.2121 13.1739C13.1507 13.4726 13.9406 13.8715 14.5826 14.3727V12.9055H19.5385V31.2623H14.5826V29.9026Z" fill="#FEFEFE"/>
</svg>
